inDegrees=yes
name=ik_MT_2026-09-03_16h27_01210270-001-000_orientations
DataType=double
version=3
OpenSimVersion=4.5
endheader
time	pelvis_tilt	pelvis_list	pelvis_rotation	pelvis_tx	pelvis_ty	pelvis_tz	hip_flexion_r	hip_adduction_r	hip_rotation_r	knee_angle_r	knee_angle_r_beta	ankle_angle_r	subtalar_angle_r	mtp_angle_r	hip_flexion_l	hip_adduction_l	hip_rotation_l	knee_angle_l	knee_angle_l_beta	ankle_angle_l	subtalar_angle_l	mtp_angle_l	lumbar_extension	lumbar_bending	lumbar_rotation	arm_flex_r	arm_add_r	arm_rot_r	elbow_flex_r	pro_sup_r	wrist_flex_r	wrist_dev_r	arm_flex_l	arm_add_l	arm_rot_l	elbow_flex_l	pro_sup_l	wrist_flex_l	wrist_dev_l
147.35	-0.6065401006233853	-4.331873494382054	-2675.520289864107	0	0.9399999999999999	0	-3326.483160353926	-146.4506375477211	-3128.244051245388	-213.0601399865653	-3.718600947525592	68.49635715336284	0	0	19.44594224849713	26.93836048340696	66.13592200297592	14.41082212511418	0.2515162940024886	-14.37004602533059	0	0	3.713860232624684	-0.7315594555507527	-67.21959132711895	24.78006003594847	6.226887844179771	89.95338609858538	0.3785940849362077	45.00000025534025	0	0	3.291965311972782	-4.837623133724346	-7.263583935556644	0.1766946352394162	45.00000025534025	0	0
147.375	-1.100204923960316	-4.707896042282576	-2677.047026045531	0	0.9399999999999999	0	-3327.137851499301	-146.2370002086292	-3129.647822762853	-211.8306053398834	-3.697141519673647	69.69239138722139	0	0	16.16459302389097	29.14266081029846	66.78029693417305	10.16293666182609	0.1773767064205068	-19.4939661468467	0	0	2.493805656150264	-0.7273745316335929	-66.6953993002308	25.25705127037519	7.296702639700942	89.95461747564444	0.4256162281046769	45.00000025534025	0	0	3.953078181451302	-5.223994676444864	-7.021368464459091	0.2019626672151256	45.00000025534025	0	0
147.4	-1.421122142633054	-4.736497353428883	-2678.356043626244	0	0.9399999999999999	0	-3327.645002890698	-146.2646240846709	-3131.173037830943	-210.9381103343134	-3.681564543268845	70.37690953779557	0	0	13.10883056199641	30.17341832275198	67.78851737755234	5.993460471915245	0.1046056188230542	-24.01708892205216	0	0	1.639296430828981	-0.7103059111962549	-66.29370461474278	25.51909843806116	8.067645042030756	89.95509089314098	0.4024931635260032	45.00000025534025	0	0	4.508319324743248	-5.517990259307988	-6.755547841168512	0.2135632319647748	45.00000025534025	0	0
147.425	-1.66710426231411	-4.676260699063389	-2679.51179840532	0	0.9399999999999999	0	-3328.005014516578	-146.398159377401	-3132.655428403809	-210.2192829322091	-3.669018638348569	70.59022744238766	0	0	10.18853472142106	30.82227517783116	69.0292670429909	3.693840417221109	0.06446967732374941	-27.32739111754062	0	0	0.8649735271362313	-0.8261714996920769	-66.03928697628021	25.6975231712388	8.584812646945895	89.95567073764349	0.3556601184703425	45.00000025534025	0	0	4.958460423535327	-5.811678481477587	-6.483593154111881	0.2320641244090449	45.00000025534025	0	0
147.45	-2.064229290885035	-4.643869492284545	-2680.373457646076	0	0.9399999999999999	0	-3328.410073277595	-146.0149475349489	-3134.330114632287	-209.2305115296714	-3.651761321824723	70.56069665600562	0	0	6.915055333310885	31.40021549708374	70.27490662558311	3.759455517995601	0.06561487687129217	-30.73341283032605	0	0	0.1192667374026752	-1.676837406115656	-66.20003012534667	25.18866772263737	8.932545882184288	89.95608154573247	0.2908242381023141	45.00000025534025	0	0	4.664646493868859	-6.164778339534996	-6.387626548259793	0.2595035941198449	45.00000025534025	0	0
147.475	-2.67529242413838	-4.654467389299898	-2681.042021850164	0	0.9399999999999999	0	-3328.902112200002	-144.951019387888	-3136.26508484351	-207.860402315478	-3.627848404925136	69.82610159769271	0	0	3.525769558542653	32.56366081049056	70.38122676881484	5.942116649659013	0.1037095000741242	-34.5135790244025	0	0	-0.6526443612745579	-3.486228670565231	-66.65416845105096	23.75246640954901	9.252148399931265	89.95633999427497	0.2359063326953568	45.00000025534025	0	0	3.383532714212523	-6.604803309734777	-6.495951329315989	0.3099977303240128	45.00000025534025	0	0
147.5	-3.095800761287083	-4.517895459519967	-2681.887775402206	0	0.9399999999999999	0	-3329.085402377137	-143.6900560305709	-3138.538853879473	-206.2904164473232	-3.600446982316053	67.97294376224937	0	0	1.219008717847264	34.02107431961482	70.04974878142684	8.810598744151006	0.1537739571575125	-34.20749581827334	0	0	-1.163602513240256	-5.190648874886948	-66.93134611735962	22.29329011106882	9.306740802603841	89.95662505855177	0.1852145547535588	45.00000025534025	0	0	2.125481581434487	-6.820585578870826	-6.688580153955469	0.4000412527350296	45.00000025534025	0	0
147.525	-2.706703467550389	-4.299621703749341	-2682.679411595229	0	0.9399999999999999	0	-3328.216337421239	-141.5952440215859	-3140.958403647621	-204.2926429649416	-3.565579257339461	64.38861875170394	0	0	0.3208487356011827	36.01243148704238	69.09193363296959	11.74078928865564	0.2049154298699239	-32.84820241854532	0	0	-1.411517659461472	-5.625767561655393	-67.29586277478781	22.32468183468676	8.990529166111031	89.95659805249726	0.1459151137319676	45.00000025534025	0	0	2.376649361184111	-6.83397906731525	-6.899544817209023	0.5444918446034446	45.00000025534025	0	0
147.55	-1.502257397439398	-4.308199211180454	-2682.87056399405	0	0.9399999999999999	0	-3326.62622467325	-138.4200424268352	-3143.101594167932	-202.4507362024597	-3.533431919819403	58.82064138762928	0	0	0.2244851493520462	37.39190090845675	69.82420535450665	14.85195739661943	0.2592155569369344	-33.05907901734248	0	0	-1.135468402329669	-5.789063194872893	-68.23892048358903	22.92831762636018	8.138480939257576	89.95573303050571	0.1152640778427453	45.00000025534025	0	0	3.182764602017668	-6.747329522204478	-7.053956579498549	0.7774793047421645	45.00000025534025	0	0
147.575	-0.7286500307967282	-4.63268377864128	-2683.165083069278	0	0.9399999999999999	0	-3325.846121362229	-135.3747921237637	-3145.076705159141	-201.0781472435027	-3.509475723209083	53.06001847365593	0	0	0.6522540518596458	37.45572416386163	72.83071895700074	18.0627652928269	0.3152547263747871	-27.29398123471967	0	0	-1.355138118552037	-5.875425058057957	-69.3634183593006	23.6003347252987	6.93360058199768	89.95624970534347	0.08950298865648047	45.00000025534025	0	0	3.897485581569371	-6.789632435104029	-7.467537355116047	0.998261155307251	45.00000025534025	0	0
147.6	0.2269217644364369	-4.559706137004021	-2684.044607653399	0	0.9399999999999999	0	-3325.816831808087	-133.5226764824158	-3147.211533473502	-200.4391042593047	-3.498322319073057	47.87461853654045	0	0	2.669300379949672	35.55233808659636	75.21994733479517	19.00518394961698	0.3317030348679964	-20.91918741093373	0	0	-1.17202634470583	-5.52048447930121	-70.16049896887942	24.22019226685707	5.631219721004558	89.95785715798432	0.07112585688434764	45.00000025534025	0	0	4.485462304032858	-6.926066184144827	-8.213470135785121	1.052667146644813	45.00000025534025	0	0
147.625	0.1004755001844157	-4.476126667009247	-2685.747483455702	0	0.9399999999999999	0	-3327.792574907868	-132.8602522521387	-3149.634069374139	-200.2360259570033	-3.494777934058538	44.05132435131708	0	0	5.138308703167362	31.64759267261631	74.54908938711965	17.76010622808094	0.3099723291839634	-17.02463602027047	0	0	-1.862370604745122	-5.11595932002962	-70.33695889444306	24.64963447198389	4.470848171898926	89.95871614447891	0.0593348599375724	45.00000025534025	0	0	4.677276256256867	-7.18220657947162	-8.859244635983041	1.106065152050876	45.00000025534025	0	0
147.65	0.06918942058742722	-4.595016731044913	-2687.995582465023	0	0.9399999999999999	0	-3330.408830915006	-133.2993730584235	-3150.742185517333	-201.1396092805671	-3.510548438120839	42.39698819749644	0	0	7.581020087412734	29.59685582724233	72.47335494418344	17.47829468743342	0.3050537899295463	-14.5701783178145	0	0	-2.495076404725785	-5.189377963107011	-69.99885247171922	24.87792081349031	3.627370183597384	89.95857720463138	0.05218085899270443	45.00000025534025	0	0	4.620982256652205	-7.460629675601142	-9.169308526155094	1.330272999753559	45.00000025534025	0	0
147.675	-0.7631728574937534	-5.338570040634742	-2690.524551780548	0	0.9399999999999999	0	-3333.966747133327	-133.6293277783016	-3150.479566871335	-201.7466241304892	-3.521142845860478	43.52107463715244	0	0	8.575178046479927	29.95162457012922	71.3259553736236	18.59000101889039	0.3244567257287378	-12.2457481841006	0	0	-4.011770409542652	-5.73952436287974	-69.30916111529072	25.19651595276722	3.011785100967878	89.95908546190763	0.04744173270583291	45.00000025534025	0	0	4.716107718157928	-7.889822045372235	-8.952689219759696	1.619038027377769	45.00000025534025	0	0
147.7	-2.251146972188877	-6.078997570730125	-2692.667778011898	0	0.9399999999999999	0	-3338.675875235914	-132.1729798900537	-3150.295266684556	-201.1424218057282	-3.510597525945195	44.94843999300661	0	0	7.556662792811557	29.76531451438409	70.74493226730721	19.1367602921239	0.333999475262474	-9.982653678241673	0	0	-6.117604998839406	-6.227410622199946	-68.92272653639904	25.5381555160942	2.547016489412938	89.96143022680258	0.04410603307568869	45.00000025534025	0	0	4.934358130696404	-8.455639526928723	-8.328640983250704	1.79797462585623	45.00000025534025	0	0
147.725	-2.575484996811926	-6.103147064159347	-2694.178901203844	0	0.9399999999999999	0	-3343.505723744213	-128.8677747091287	-3152.391882412248	-197.7838759532239	-3.451979842739795	50.15824419006375	0	0	6.79813007310868	27.88597885251066	70.19547655918628	18.4917880580774	0.322742586194419	-7.91015591975424	0	0	-6.826554118852606	-5.886876747845399	-68.83185787487652	26.09588073452229	1.971719073728859	89.96418837812674	0.042077127606707	45.00000025534025	0	0	5.587221745994347	-8.877861568755012	-7.559287626614729	1.724010636396862	45.00000025534025	0	0
147.75	-0.3455805339602013	-5.491530161514008	-2695.336578232655	0	0.9399999999999999	0	-3347.120485392128	-124.8257630675669	-3156.965683784103	-192.5740145750049	-3.361050608117384	59.364889359293	0	0	8.663204387838627	25.33819171407506	68.79369935171837	17.47970358413572	0.3050783798158219	-6.674348966000315	0	0	-4.876547001082791	-4.943205813951052	-68.91183611941571	26.80759828593889	1.45963475746917	89.96548486914419	0.0411504680498896	45.00000025534025	0	0	6.460847864439646	-9.19128254662647	-6.986468961897341	1.49870126468362	45.00000025534025	0	0
147.775	-0.2301158912714548	-4.908491102203985	-2696.44892860348	0	0.9399999999999999	0	-3354.171710302165	-120.9337355401099	-3163.524377836245	-187.5727070486711	-3.273761324878086	70.11326291152385	0	0	8.835179578265766	22.74618326182096	67.75631272634988	16.74922922248387	0.2923291971035933	-5.368207825695739	0	0	-4.895416960001873	-3.973081228730172	-69.58610791624977	27.18298363760907	0.982611553669298	89.96497566493439	0.0414523837594188	45.00000025534025	0	0	7.020449277626917	-9.409551523104929	-6.803572782801899	1.274739039027176	45.00000025534025	0	0
147.8	-0.4867843297421464	-4.465132226961599	-2697.703743325826	0	0.9399999999999999	0	-3359.93453749224	-117.7748607230488	-3167.808791043245	-184.3439421156014	-3.217408746023086	78.84591578061691	0	0	8.524902731199058	20.78384188795444	67.35835949872697	16.34120059403709	0.2852077540948004	-4.164173366154602	0	0	-5.022166050339998	-3.367806391704951	-70.3836648861875	27.19554229708631	0.4023977774067748	89.96305284463268	0.04228316654129079	45.00000025534025	0	0	7.135892941942692	-9.552592411180191	-6.775334420685262	1.130505924391688	45.00000025534025	0	0
